<?xml version="1.0" encoding="UTF-8" standalone="no"?>
<!DOCTYPE svg PUBLIC "-//W3C//DTD SVG 1.1//EN"
"http://www.w3.org/Graphics/SVG/1.1/DTD/svg11.dtd">
<svg viewBox="0 0 909 1286" version="1.1" xmlns="http://www.w3.org/2000/svg" xmlns:xlink="http://www.w3.org/1999/xlink">
<defs>
<clipPath id="c0"><path d="M36.8 72V14.2H176.9V72Z"/></clipPath>
<clipPath id="c1"><path d="M264.6 190.2V167.3H527.3v22.9Z"/></clipPath>
<clipPath id="c2"><path d="M263.8 224V201.1H572.4V224Z"/></clipPath>
<clipPath id="c3"><path d="M266.1 260.2V237.3H545.7v22.9Z"/></clipPath>
<clipPath id="c4"><path d="M649.9 259.4V236.5H894.3v22.9Z"/></clipPath>
<clipPath id="c5"><path d="M650.7 129.4V106.5H895.1v22.9Z"/></clipPath>
<clipPath id="c6"><path d="M21.5 307.1V284.2H408v22.9Z"/></clipPath>
<clipPath id="c7"><path d="M426.1 409.4V351.3h58v58.1Z"/></clipPath>
<clipPath id="c8"><path d="M52.2 337.9V315H438.8v22.9Z"/></clipPath>
<clipPath id="c9"><path d="M83 368.6V345.7H469.5v22.9Z"/></clipPath>
<clipPath id="ca"><path d="M99.9 408.6V385.7H876v22.9Z"/></clipPath>
<clipPath id="cb"><path d="M115.3 441.7V418.8H891.4v22.9Z"/></clipPath>
<clipPath id="cc"><path d="M112.2 475.6v-23H888.3v23Z"/></clipPath>
<clipPath id="cd"><path d="M100.7 507.9v-23H876.8v23Z"/></clipPath>
<clipPath id="ce"><path d="M104.5 554V531.1H880.7V554Z"/></clipPath>
<clipPath id="cf"><path d="M99.2 587.9v-23H875.3v23Z"/></clipPath>
<clipPath id="cg"><path d="M107.6 620.2v-23H883.7v23Z"/></clipPath>
<clipPath id="ch"><path d="M101.5 650.9V628H877.6v22.9Z"/></clipPath>
<clipPath id="ci"><path d="M109.9 703.2V680.3H886v22.9Z"/></clipPath>
<clipPath id="cj"><path d="M101.5 780.9V758H877.6v22.9Z"/></clipPath>
<clipPath id="ck"><path d="M109.2 814.8v-23H885.3v23Z"/></clipPath>
<clipPath id="cl"><path d="M108.4 845.5V822.6H884.5v22.9Z"/></clipPath>
<clipPath id="cm"><path d="M111.5 878.6V855.7H887.6v22.9Z"/></clipPath>
<clipPath id="cn"><path d="M107.6 914.8v-23H883.7v23Z"/></clipPath>
<clipPath id="co"><path d="M613 746.3V723.4H874.2v22.9Z"/></clipPath>
<clipPath id="cp"><path d="M113.8 748.6V725.7H375v22.9Z"/></clipPath>
<clipPath id="cq"><path d="M113 959.4V936.5H374.3v22.9Z"/></clipPath>
<clipPath id="cr"><path d="M133.8 1186.3v-22.9H395v22.9Z"/></clipPath>
<clipPath id="cs"><path d="M479.9 1186.3v-22.9H719.8v22.9Z"/></clipPath>
<clipPath id="ct"><path d="M800.7 1186.3v-22.9h80.9v22.9Z"/></clipPath>
<clipPath id="cu"><path d="M427.6 1220.1v-22.9h81v22.9Z"/></clipPath>
<clipPath id="cv"><path d="M336.1 1220.1v-22.9H417v22.9Z"/></clipPath>
<clipPath id="cw"><path d="M234.5 1219.4v-22.9h81v22.9Z"/></clipPath>
<clipPath id="cx"><path d="M759.3 131.2v-26h27.5v26Z"/></clipPath>
<clipPath id="cy"><path d="M695.1 131.2v-26h27.5v26Z"/></clipPath>
<clipPath id="cz"><path d="M62.6 193.9V166.4H90.1v27.5Z"/></clipPath>
<clipPath id="c10"><path d="M612.6 957.7V931.8h26v25.9Z"/></clipPath>
<clipPath id="c11"><path d="M235.3 997.5V970h27.5v27.5Z"/></clipPath>
<clipPath id="c12"><path d="M586.7 1190v-26h27.5v26Z"/></clipPath>
<clipPath id="c13"><path d="M522.5 1190v-26H550v26Z"/></clipPath>
<clipPath id="c14"><path d="M867.8 132.7v-29h29v29Z"/></clipPath>
<clipPath id="c15"><path d="M693.6 1191.5v-29h29v29Z"/></clipPath>
<style type="text/css"><![CDATA[
.g0{
fill: #FFF;
}
.g1{
fill: #000;
}
.g2{
fill: #58595B;
}
.g3{
fill: none;
stroke: #231F20;
stroke-width: 0.763;
stroke-miterlimit: 10;
}
.g4{
fill: none;
stroke: #D1D3D4;
stroke-width: 0.916;
}
.g5{
fill: none;
stroke: #000;
stroke-width: 0.381;
}
]]></style>

</defs>
<path d="M36.8 72H176.9V14.2H36.8V72Z" class="g0"/>
<path clip-path="url(#c0)" d="M91.4 56.4c-4.5 5.8 -11.3 9.1 -18.7 9.1c-5.6 0 -10.9 -1.9 -15.1 -5.3c5.1 5.7 12.5 8.9 20.7 8.9c9.7 0 18.5 -4.7 23.4 -12.7Zm-39.9 -3H36.8c7 11.3 20.7 18.6 35 18.6c4.2 0 8.3 -.6 12.3 -1.8c-2.1 .4 -4.1 .6 -6.3 .6C66.1 70.8 55.5 63.9 51.5 53.4Z" class="g1"/>
<path d="M92.8 19.1C86.1 14.9 76.9 14.2 75.7 16.4c-1.6 2.1 -2.6 4.3 -4.1 6.8c0 0 10.3 -3.7 21.2 -4.1Z" class="g1"/>
<path d="M70.4 25.3c-2.3 3.5 -4.2 7.6 -4.6 11.2c0 .1 0 .3 0 .4c-.6 8 2.4 13.4 6.3 17.1c3.2 3.1 7.2 4.9 9.9 5.8C79.6 57.5 78.2 54.5 77.8 51.2c-.1 -.9 -.1 -1.9 0 -2.9c0 -.2 0 -.5 .1 -.8c1 -9.4 8.1 -16.3 8.2 -16.4c5 -5.7 11 -9.1 13.4 -10.4c-9.4 -.5 -19.4 1.1 -29.1 4.6M62.8 36.6c0 -.2 .1 -.3 .1 -.5c.4 -3.2 1.9 -6.4 3.7 -9.4C62.1 28.5 54 31.8 49.8 35.1c-.8 8 3.9 18.6 14.4 23.3c1.8 .8 5.7 2.3 11.4 2.6c.2 0 .4 0 .6 0c-.2 -.1 -.4 -.2 -.6 -.3C73.4 59.5 71.1 57.9 69.1 55.8C64.9 51.6 61.8 45.2 62.8 36.6Z" class="g1"/>
<path d="M126 26.9h-5.4c-.8 0 -1 .2 -1.5 1.6l-6.9 20.8L105 28c-.4 -.9 -.6 -1.1 -1.6 -1.1H97.1c0 0 -.4 .2 0 .4c0 0 .6 .3 .7 .8V52.3c-.1 .6 -.7 .8 -.7 .8c-.1 .1 -.1 .2 -.1 .2c0 .2 .1 .2 .1 .2h4.1c.3 0 .6 -.2 .6 -.5V33.3l6.7 18.8c.4 1.2 .6 1.4 1.4 1.4h3.2c.8 0 1.2 -.2 1.4 -.7c.1 -.2 6.9 -19.5 6.9 -19.5V53c0 .3 .2 .5 .5 .5H126c0 0 .5 0 .6 -.5V27.4c0 -.3 -.3 -.5 -.6 -.5Z" class="g2"/>
<path clip-path="url(#c0)" d="M170.4 49.2c-.9 .7 -1.8 1 -3.8 1h-4.9V30.1h5c2.3 0 3.8 1.6 3.8 4.1c0 2.5 -2.6 3.6 -5.3 3.6h-.4c0 0 -.4 0 -.4 .4v2.9c0 0 -.1 .6 .4 .5h1.1c3 0 5.8 1.5 5.8 4.3c0 1.3 -.5 2.6 -1.3 3.3m4 -8.5c-1.1 -.8 -1.7 -1 -3.5 -1.5c1.4 -.3 1.9 -.5 2.7 -1.1c1.3 -1 2.1 -2.8 2.1 -4.7c0 -2 -1 -4.1 -2.4 -5.1c-1.5 -1.1 -3.1 -1.4 -6.4 -1.4H156c0 0 -.4 .2 0 .4c0 0 .6 .3 .6 .7V52.3c-.1 .6 -.6 .8 -.6 .8c-.4 .2 0 .4 0 .4h11.5c3.1 0 5 -.5 6.7 -1.8c1.9 -1.4 2.7 -3.2 2.7 -5.5c0 -2.3 -1 -4.3 -2.5 -5.5Z" class="g2"/>
<path d="M151.1 27.6c-1.7 -.7 -4.5 -1.1 -7.1 -1.1c-8.3 0 -13.8 5.6 -13.8 14.2c0 4.3 1.4 7.6 3.9 9.9c.8 .7 1.8 1.5 3.2 2.2c.2 .1 .5 .3 1 .4c.8 .4 1.7 .6 2.7 .8c2.6 .4 6.3 .5 10.5 -1.4q.1 0 .1 0c0 -.1 .1 -.1 .1 -.1c.5 -.2 .5 -.9 .5 -.9V48.8q0 -.1 0 -.1v-1c-.1 -.8 -1 -.1 -1 -.1c-1.7 1.2 -3.8 1.9 -6.1 1.9c-5.7 -.1 -9 -3.6 -9.6 -8.1c-.1 -.4 -.1 -.8 -.1 -1.2c0 -5.8 3.9 -9.8 9.6 -9.7c3.3 0 5.3 1 6.2 1.5q.1 .1 .2 .1c.1 .1 .2 .3 .3 .4c0 0 .1 .1 .1 .2c.2 .2 .4 -.1 .4 -.1V28.9c0 -.6 -.3 -1 -1.1 -1.3Z" class="g2"/>
<path d="M34.6 1144.8H874.8" class="g3"/>
<path d="M655.4 129.3H871V108.6H655.4v20.7Zm22.5 -21.2v21.7m20.8 -21.7v21.7m21.2 -21.7v21.7m21.9 -21.7v21.7m21.6 -21.7v21.7m21.4 -21.7v21.7M805 108.1v21.7m21.6 -21.7v21.7m21.7 -21.7v21.7M65.7 190.6H86.4V169.8H65.7v20.8Zm201.6 0h259V169.8h-259v20.8Zm22.3 -21.2V191M311 169.4V191m21.5 -21.6V191m21.4 -21.6V191m21.5 -21.6V191m21.4 -21.6V191m21.5 -21.6V191m21.4 -21.6V191m21.4 -21.6V191m21.5 -21.6V191M504 169.4V191M65.7 222.2H86.4V201.5H65.7v20.7Zm201.6 2.2H569.6V203.7H267.3v20.7Zm22.4 -21.2v21.7m21.6 -21.7v21.7m21.6 -21.7v21.7m21.6 -21.7v21.7m21.6 -21.7v21.7m21.6 -21.7v21.7m21.5 -21.7v21.7m21.6 -21.7v21.7m21.6 -21.7v21.7M484 203.2v21.7m21.6 -21.7v21.7m20.9 -21.7v21.7m21.8 -21.7v21.7m-482.6 33H86.4V237.2H65.7v20.7Zm201.6 2.2h259V239.3h-259v20.8Zm22.3 -21.2v21.6M311 238.9v21.6m21.5 -21.6v21.6m21.4 -21.6v21.6m21.5 -21.6v21.6m21.4 -21.6v21.6m21.5 -21.6v21.6m21.4 -21.6v21.6m21.4 -21.6v21.6m21.5 -21.6v21.6M504 238.9v21.6m151.4 -1.1H871V238.7H655.4v20.7ZM678 238.2v21.7m21.9 -21.7v21.7m21.8 -21.7v21.7m21.9 -21.7v21.7m21.8 -21.7v21.7m21.8 -21.7v21.7m21.9 -21.7v21.7m21.8 -21.7v21.7m21.8 -21.7v21.7M144.6 307.7h61.1V286.9H144.6v20.8Zm20.5 -21.2v21.6m20.3 -21.6v21.6M35.1 307.7h61V286.9h-61v20.8ZM55.6 286.5v21.6M75.8 286.5v21.6m136.5 -.4h61V286.9h-61v20.8Zm20.5 -21.2v21.6M253 286.5v21.6m26.9 -.4h61V286.9h-61v20.8Zm20.5 -21.2v21.6m20.2 -21.6v21.6m41.4 -.4h43.8V286.9H362v20.8Zm22.1 -21.2v21.6M117.6 408.9h757V388.3h-757v20.6Zm22.3 -21.1v21.6m21.5 -21.6v21.5m21.1 -21.5v21.6m21.9 -21.6v21.5m21.5 -21.5v21.6m22.2 -21.5v21.6m21.5 -21.6v21.6m21.5 -21.6v21.5m21 -21.5v21.6M334 387.9v21.6m21.1 -21.7v21.6m21 -21.5v21.6m22.8 -21.6v21.6m21.9 -21.6v21.6m21 -21.6v21.6m21.1 -21.6v21.6m21.9 -21.7v21.6m21 -21.6v21.6m21.1 -21.6v21.6m22.8 -21.6v21.6m21.2 -21.6v21.6m22 -21.6v21.6m21.2 -21.6v21.6m21.1 -21.6v21.6m21.2 -21.6v21.6m22 -21.6v21.6m22 -21.6v21.6m22 -21.6v21.6m21.2 -21.6v21.6m21.1 -21.6v21.6m22.1 -21.6v21.6m21.1 -21.6v21.6m21.2 -21.6v21.6m22.8 -21.6v21.6M117.6 442.7h757V422.1h-757v20.6Zm22.3 -21v21.5m21.5 -21.5v21.5m21.1 -21.5v21.5m21.9 -21.5v21.5m21.5 -21.5v21.5m22.2 -21.4v21.5m21.5 -21.5v21.5m21.5 -21.6v21.6m21 -21.5v21.5M334 421.8v21.5m21.1 -21.6v21.5m21 -21.4v21.5m22.8 -21.5v21.5m21.9 -21.5v21.5m21 -21.5v21.5m21.1 -21.5v21.5m21.9 -21.6v21.5m21 -21.5v21.5m21.1 -21.5v21.5m22.8 -21.5v21.5m21.2 -21.5v21.5m22 -21.5v21.5m21.2 -21.5v21.5m21.1 -21.5v21.5m21.2 -21.5v21.5m22 -21.5v21.5m22 -21.5v21.5m22 -21.5v21.5m21.2 -21.5v21.5m21.1 -21.5v21.5m22.1 -21.5v21.5m21.1 -21.5v21.5m21.2 -21.5v21.5m22.8 -21.5v21.5M117.6 476.6h757V456h-757v20.6Zm22.3 -21.1V477m21.5 -21.5V477m21.1 -21.5V477m21.9 -21.5V477m21.5 -21.5V477m22.2 -21.4v21.5m21.5 -21.5v21.5m21.5 -21.5v21.5m21 -21.5v21.5M334 455.6v21.5m21.1 -21.6V477m21 -21.4v21.5m22.8 -21.5v21.5m21.9 -21.5v21.5m21 -21.5v21.5m21.1 -21.5v21.5m21.9 -21.6V477m21 -21.5V477m21.1 -21.5V477m22.8 -21.5V477m21.2 -21.5V477m22 -21.5V477m21.2 -21.5V477m21.1 -21.5V477m21.2 -21.5V477m22 -21.5V477m22 -21.5V477m22 -21.5V477m21.2 -21.5V477m21.1 -21.5V477m22.1 -21.5V477m21.1 -21.5V477m21.2 -21.5V477m22.8 -21.5V477M117.6 508.4h757V487.8h-757v20.6Zm22.3 -21.1v21.5m21.5 -21.5v21.5m21.1 -21.5v21.5m21.9 -21.5v21.5m21.5 -21.5v21.5m22.2 -21.4v21.5m21.5 -21.5v21.5m21.5 -21.5v21.5m21 -21.5v21.5M334 487.4v21.5m21.1 -21.6v21.5m21 -21.4v21.5m22.8 -21.5v21.5m21.9 -21.5v21.5m21 -21.5v21.5m21.1 -21.5v21.5m21.9 -21.6v21.5m21 -21.5v21.5m21.1 -21.5v21.5m22.8 -21.5v21.5m21.2 -21.5v21.5m22 -21.5v21.5m21.2 -21.5v21.5m21.1 -21.5v21.5m21.2 -21.5v21.5m22 -21.5v21.5m22 -21.5v21.5m22 -21.5v21.5m21.2 -21.5v21.5m21.1 -21.5v21.5m22.1 -21.5v21.5m21.1 -21.5v21.5m21.2 -21.5v21.5m22.8 -21.5v21.5M117.6 554.7h757V534.1h-757v20.6Zm22.3 -21v21.5m21.5 -21.6v21.6m21.1 -21.5v21.5m21.9 -21.6v21.6m21.5 -21.5v21.5m22.2 -21.4v21.5m21.5 -21.5v21.5m21.5 -21.6v21.5m21 -21.4v21.5M334 533.8v21.5m21.1 -21.6v21.5m21 -21.4v21.5m22.8 -21.5v21.5m21.9 -21.5v21.5m21 -21.5v21.5m21.1 -21.5v21.5m21.9 -21.6v21.5m21 -21.5v21.5m21.1 -21.5v21.5m22.8 -21.5v21.5m21.2 -21.5v21.5m22 -21.5v21.5m21.2 -21.5v21.5m21.1 -21.5v21.5m21.2 -21.5v21.5m22 -21.5v21.5m22 -21.5v21.5m22 -21.5v21.5m21.2 -21.5v21.5m21.1 -21.5v21.5m22.1 -21.5v21.5m21.1 -21.5v21.5m21.2 -21.5v21.5m22.8 -21.5v21.5M117.6 588.6h757V568h-757v20.6Zm22.3 -21.1V589m21.5 -21.5V589m21.1 -21.5V589m21.9 -21.5V589m21.5 -21.5V589m22.2 -21.4v21.5m21.5 -21.5v21.5m21.5 -21.5v21.5m21 -21.5v21.5M334 567.6v21.5m21.1 -21.6V589m21 -21.4v21.5m22.8 -21.5v21.5m21.9 -21.5v21.5m21 -21.5v21.5m21.1 -21.5v21.5m21.9 -21.6V589m21 -21.5V589m21.1 -21.5V589m22.8 -21.5V589m21.2 -21.5V589m22 -21.5V589m21.2 -21.5V589m21.1 -21.5V589m21.2 -21.5V589m22 -21.5V589m22 -21.5V589m22 -21.5V589m21.2 -21.5V589m21.1 -21.5V589m22.1 -21.5V589m21.1 -21.5V589m21.2 -21.5V589m22.8 -21.5V589M117.6 621.2h757V600.6h-757v20.6Zm22.3 -21.1v21.6m21.5 -21.6v21.5m21.1 -21.5v21.6m21.9 -21.6v21.5m21.5 -21.5v21.6m22.2 -21.5v21.5m21.5 -21.5v21.5m21.5 -21.5v21.5m21 -21.5v21.5M334 600.2v21.5m21.1 -21.6v21.6m21 -21.5v21.5m22.8 -21.5v21.5m21.9 -21.5v21.5m21 -21.5v21.5m21.1 -21.5v21.5m21.9 -21.6v21.6m21 -21.6v21.6m21.1 -21.6v21.6m22.8 -21.6v21.6m21.2 -21.6v21.6m22 -21.6v21.6m21.2 -21.6v21.6m21.1 -21.6v21.6m21.2 -21.6v21.6m22 -21.6v21.6m22 -21.6v21.6m22 -21.6v21.6m21.2 -21.6v21.6m21.1 -21.6v21.6m22.1 -21.6v21.6m21.1 -21.6v21.6m21.2 -21.6v21.6m22.8 -21.6v21.6m-734.3 30h757V631.1h-757v20.6Zm22.3 -21v21.5m21.5 -21.5v21.5m21.1 -21.5v21.5m21.9 -21.5v21.5m21.5 -21.5v21.5m22.2 -21.4v21.5m21.5 -21.5v21.5m21.5 -21.6v21.6m21 -21.5v21.5M334 630.8v21.5m21.1 -21.6v21.5m21 -21.4v21.5m22.8 -21.5v21.5m21.9 -21.5v21.5m21 -21.5v21.5m21.1 -21.5v21.5m21.9 -21.6v21.5m21 -21.5v21.5m21.1 -21.5v21.5m22.8 -21.5v21.5m21.2 -21.5v21.5m22 -21.5v21.5m21.2 -21.5v21.5m21.1 -21.5v21.5m21.2 -21.5v21.5m22 -21.5v21.5m22 -21.5v21.5m22 -21.5v21.5m21.2 -21.5v21.5m21.1 -21.5v21.5m22.1 -21.5v21.5m21.1 -21.5v21.5m21.2 -21.5v21.5m22.8 -21.5v21.5m-734.3 52h757V683.6h-757v20.6Zm22.3 -21v21.5m21.5 -21.6v21.6m21.1 -21.5v21.5m21.9 -21.6v21.5m21.5 -21.4v21.5m22.2 -21.4v21.5m21.5 -21.5v21.5m21.5 -21.6v21.5m21 -21.4v21.5M334 683.3v21.5m21.1 -21.6v21.5m21 -21.4v21.5m22.8 -21.5v21.5m21.9 -21.5v21.5m21 -21.5v21.5m21.1 -21.5v21.5m21.9 -21.6v21.5m21 -21.5v21.5m21.1 -21.5v21.5m22.8 -21.5v21.5m21.2 -21.5v21.5m22 -21.5v21.5m21.2 -21.5v21.5m21.1 -21.5v21.5m21.2 -21.5v21.5m22 -21.5v21.5m22 -21.5v21.5m22 -21.5v21.5m21.2 -21.5v21.5m21.1 -21.5v21.5m22.1 -21.5v21.5m21.1 -21.5v21.5m21.2 -21.5v21.5m22.8 -21.5v21.5M117.6 749.2H354.9V728.4H117.6v20.8ZM139.9 728v21.6M161.5 728v21.6M183 728v21.6M204.5 728v21.6M226 728v21.6M247.5 728v21.6M269.1 728v21.6M290.6 728v21.6M312.1 728v21.6M333.6 728v21.6M614 747H872.9V726.3H614V747Zm22.3 -21.2v21.7m21.4 -21.7v21.7m21.5 -21.7v21.7m21.4 -21.7v21.7M722 725.8v21.7m21.5 -21.7v21.7m21.4 -21.7v21.7m21.5 -21.7v21.7m21.4 -21.7v21.7m21.5 -21.7v21.7m21.4 -21.7v21.7M117.6 782.2h757V761.6h-757v20.6Zm22.3 -21v21.5m21.5 -21.6v21.5m21.1 -21.4v21.5m21.9 -21.6v21.5m21.5 -21.4v21.5m22.2 -21.4v21.5m21.5 -21.5v21.5m21.5 -21.6v21.5m21 -21.4v21.5M334 761.3v21.5m21.1 -21.6v21.5m21 -21.4v21.5m22.8 -21.5v21.5m21.9 -21.5v21.5m21 -21.5v21.5m21.1 -21.5v21.5m21.9 -21.6v21.5m21 -21.5v21.5m21.1 -21.5v21.5m22.8 -21.5v21.5m21.2 -21.5v21.5m22 -21.5v21.5m21.2 -21.5v21.5m21.1 -21.5v21.5m21.2 -21.5v21.5m22 -21.5v21.5m22 -21.5v21.5m22 -21.5v21.5m21.2 -21.5v21.5m21.1 -21.5v21.5m22 -21.5v21.5m21.2 -21.5v21.5m21.2 -21.5v21.5m22.8 -21.5v21.5M117.6 815.8h757V795.2h-757v20.6Zm22.3 -21v21.5m21.5 -21.6v21.6m21.1 -21.5v21.5m21.9 -21.6v21.6m21.5 -21.5v21.5m22.2 -21.4v21.5m21.5 -21.5v21.5m21.5 -21.6v21.5m21 -21.4v21.5M334 794.9v21.5m21.1 -21.6v21.5m21 -21.4v21.5m22.8 -21.5v21.5m21.9 -21.5v21.5m21 -21.5v21.5m21.1 -21.5v21.5m21.9 -21.6v21.5m21 -21.5v21.5m21.1 -21.5v21.5m22.8 -21.5v21.5m21.2 -21.5v21.5m22 -21.5v21.5m21.2 -21.5v21.5m21.1 -21.5v21.5m21.2 -21.5v21.5m22 -21.5v21.5m22 -21.5v21.5m22 -21.5v21.5m21.2 -21.5v21.5m21.1 -21.5v21.5m22 -21.5v21.5m21.2 -21.5v21.5m21.2 -21.5v21.5m22.8 -21.5v21.5M117.6 846.4h757V825.8h-757v20.6Zm22.3 -21.1v21.5m21.5 -21.5v21.5m21.1 -21.5v21.5m21.9 -21.5v21.5m21.5 -21.5v21.5m22.2 -21.4v21.5m21.5 -21.5v21.5m21.5 -21.5v21.5m21 -21.5v21.5M334 825.4v21.5m21.1 -21.6v21.5m21 -21.4v21.5m22.8 -21.5v21.5m21.9 -21.5v21.5m21 -21.5v21.5m21.1 -21.5v21.5m21.9 -21.6v21.5m21 -21.5v21.5m21.1 -21.5v21.5m22.8 -21.5v21.5m21.2 -21.5v21.5m22 -21.5v21.5m21.2 -21.5v21.5m21.1 -21.5v21.5m21.2 -21.5v21.5m22 -21.5v21.5m22 -21.5v21.5m22 -21.5v21.5m21.2 -21.5v21.5m21.1 -21.5v21.5m22 -21.5v21.5m21.2 -21.5v21.5m21.2 -21.5v21.5m22.8 -21.5v21.5M117.6 880h757V859.4h-757V880Zm22.3 -21.1v21.6m21.5 -21.6v21.5m21.1 -21.5v21.6m21.9 -21.6v21.5m21.5 -21.5v21.6M248.1 859v21.6M269.6 859v21.6M291.1 859v21.5m21 -21.5v21.6M334 859v21.6m21.1 -21.7v21.6m21 -21.5v21.6M398.9 859v21.6M420.8 859v21.6m21 -21.6v21.6M462.9 859v21.6m21.9 -21.7v21.6m21 -21.6v21.6m21.1 -21.6v21.6m22.8 -21.6v21.6m21.2 -21.6v21.6m22 -21.6v21.6m21.2 -21.6v21.6m21.1 -21.6v21.6m21.2 -21.6v21.6m22 -21.6v21.6m22 -21.6v21.6m22 -21.6v21.6m21.2 -21.6v21.6m21.1 -21.6v21.6m22 -21.6v21.6m21.2 -21.6v21.6m21.2 -21.6v21.6m22.8 -21.6v21.6M117.6 915.8h757V895.2h-757v20.6Zm22.3 -21.1v21.5m21.5 -21.5v21.5m21.1 -21.5v21.5m21.9 -21.5v21.5m21.5 -21.5v21.5m22.2 -21.4v21.5m21.5 -21.5v21.5m21.5 -21.5v21.5m21 -21.5v21.5M334 894.8v21.5m21.1 -21.6v21.5m21 -21.4v21.5m22.8 -21.5v21.5m21.9 -21.5v21.5m21 -21.5v21.5m21.1 -21.5v21.5m21.9 -21.6v21.5m21 -21.5v21.5m21.1 -21.5v21.5m22.8 -21.5v21.5m21.2 -21.5v21.5m22 -21.5v21.5m21.2 -21.5v21.5m21.1 -21.5v21.5m21.2 -21.5v21.5m22 -21.5v21.5m22 -21.5v21.5m22 -21.5v21.5m21.2 -21.5v21.5m21.1 -21.5v21.5m22 -21.5v21.5m21.2 -21.5v21.5m21.2 -21.5v21.5m22.8 -21.5v21.5m-735.8 44H353.3V939.5H116.1v20.7ZM138.4 939v21.7M159.9 939v21.7M181.5 939v21.7M203 939v21.7M224.5 939v21.7M246 939v21.7M267.5 939v21.7M289.1 939v21.7M310.6 939v21.7M332.1 939v21.7m206.3 -4.6h20.7V935.4H538.4v20.7Zm76.3 0h20.7V935.4H614.7v20.7ZM145.1 994.9h21.3V973.6H145.1v21.3Zm93.1 0h21.3V973.6H238.2v21.3Zm101.8 0h21.3V973.6H340v21.3Z" class="g4"/>
<path d="M39.2 1042.2H870.3V1002H39.2v40.2Z" class="g5"/>
<path d="M135.9 1187.2H351.6v-20.8H135.9v20.8ZM158.4 1166v21.6M179.2 1166v21.6M200.4 1166v21.6M222.3 1166v21.6M244 1166v21.6M265.4 1166v21.6M285.5 1166v21.6M307.2 1166v21.6M328.8 1166v21.6m152.4 -.4H696.8v-20.8H481.2v20.8ZM503.7 1166v21.6M524.5 1166v21.6M545.7 1166v21.6M567.6 1166v21.6M589.2 1166v21.6M610.7 1166v21.6M630.8 1166v21.6M652.5 1166v21.6M674.1 1166v21.6m131 -.4h64v-20.8h-64v20.8ZM826.7 1166v21.6m21 -21.6v21.6m-609.1 33h61.1v-20.7H238.6v20.7Zm20.5 -21.2v21.7m20.3 -21.7v21.7m68.8 -.5h61v-20.7h-61v20.7Zm20.5 -21.2v21.7m20.2 -21.7v21.7m41.5 -.5h61v-20.7h-61v20.7Zm20.4 -21.2v21.7m20.3 -21.7v21.7" class="g4"/>
<g clip-path="url(#c1)">
<path d="M264.6 167.3H527.3v22.9H264.6V167.3Z" class="g0"/>
</g>
<g clip-path="url(#c2)">
<path d="M263.8 201.1H572.4V224H263.8V201.1Z" class="g0"/>
</g>
<g clip-path="url(#c3)">
<path d="M266.1 237.3H545.7v22.9H266.1V237.3Z" class="g0"/>
</g>
<g clip-path="url(#c4)">
<path d="M649.9 236.5H894.3v22.9H649.9V236.5Z" class="g0"/>
</g>
<g clip-path="url(#c5)">
<path d="M650.7 106.5H895.1v22.9H650.7V106.5Z" class="g0"/>
</g>
<g clip-path="url(#c6)">
<path d="M21.5 284.2H408v22.9H21.5V284.2Z" class="g0"/>
</g>
<g clip-path="url(#c7)">
<path d="M426.1 351.3h58v58.1h-58V351.3Z" class="g0"/>
</g>
<g clip-path="url(#c8)">
<path d="M52.2 315H438.8v22.9H52.2V315Z" class="g0"/>
</g>
<g clip-path="url(#c9)">
<path d="M83 345.7H469.5v22.9H83V345.7Z" class="g0"/>
</g>
<g clip-path="url(#ca)">
<path d="M99.9 385.7H876v22.9H99.9V385.7Z" class="g0"/>
</g>
<g clip-path="url(#cb)">
<path d="M115.3 418.8H891.4v22.9H115.3V418.8Z" class="g0"/>
</g>
<g clip-path="url(#cc)">
<path d="M112.2 452.6H888.3v23H112.2v-23Z" class="g0"/>
</g>
<g clip-path="url(#cd)">
<path d="M100.7 484.9H876.8v23H100.7v-23Z" class="g0"/>
</g>
<g clip-path="url(#ce)">
<path d="M104.5 531.1H880.7V554H104.5V531.1Z" class="g0"/>
</g>
<g clip-path="url(#cf)">
<path d="M99.2 564.9H875.3v23H99.2v-23Z" class="g0"/>
</g>
<g clip-path="url(#cg)">
<path d="M107.6 597.2H883.7v23H107.6v-23Z" class="g0"/>
</g>
<g clip-path="url(#ch)">
<path d="M101.5 628H877.6v22.9H101.5V628Z" class="g0"/>
</g>
<g clip-path="url(#ci)">
<path d="M109.9 680.3H886v22.9H109.9V680.3Z" class="g0"/>
</g>
<g clip-path="url(#cj)">
<path d="M101.5 758H877.6v22.9H101.5V758Z" class="g0"/>
</g>
<g clip-path="url(#ck)">
<path d="M109.2 791.8H885.3v23H109.2v-23Z" class="g0"/>
</g>
<g clip-path="url(#cl)">
<path d="M108.4 822.6H884.5v22.9H108.4V822.6Z" class="g0"/>
</g>
<g clip-path="url(#cm)">
<path d="M111.5 855.7H887.6v22.9H111.5V855.7Z" class="g0"/>
</g>
<g clip-path="url(#cn)">
<path d="M107.6 891.8H883.7v23H107.6v-23Z" class="g0"/>
</g>
<g clip-path="url(#co)">
<path d="M613 723.4H874.2v22.9H613V723.4Z" class="g0"/>
</g>
<g clip-path="url(#cp)">
<path d="M113.8 725.7H375v22.9H113.8V725.7Z" class="g0"/>
</g>
<g clip-path="url(#cq)">
<path d="M113 936.5H374.3v22.9H113V936.5Z" class="g0"/>
</g>
<g clip-path="url(#cr)">
<path d="M133.8 1163.4H395v22.9H133.8v-22.9Z" class="g0"/>
</g>
<g clip-path="url(#cs)">
<path d="M479.9 1163.4H719.8v22.9H479.9v-22.9Z" class="g0"/>
</g>
<g clip-path="url(#ct)">
<path d="M800.7 1163.4h80.9v22.9H800.7v-22.9Z" class="g0"/>
</g>
<g clip-path="url(#cu)">
<path d="M427.6 1197.2h81v22.9h-81v-22.9Z" class="g0"/>
</g>
<g clip-path="url(#cv)">
<path d="M336.1 1197.2H417v22.9H336.1v-22.9Z" class="g0"/>
</g>
<g clip-path="url(#cw)">
<path d="M234.5 1196.5h81v22.9h-81v-22.9Z" class="g0"/>
</g>
</svg>